<?xml version="1.0" encoding="UTF-8"?>
<svg version="1.1" viewBox="900 150 250 1050" width="200" height="300" xmlns="http://www.w3.org/2000/svg">
<path transform="translate(947,224)" d="m0 0 34 1 30 4 23 6 18 8 11 6 13 10 9 9 9 13 8 16 6 16 1 3 4 2 23 12 26 10 12 5 5 4 8 16 7 13 10 7 22 12 23 11 28 14 18 10 15 10 8 8 6 13 3 14v23l-3 8-3 1-5-5h-2l-10 15-7 6-12 5-12 2h-31l-9-1 9 4 15 3 15 1 17-2 12-5 3 1v15l-1 14-4 16-8 16-11 14-8 7-15 10-6 2v-2h2l2-4 8-9 9-14 4-9v-8l-2-1-2 6-8 7-4 2h-3v-11h-8l-9 2-9 1h-14l-7-3-7-8-6-13-4-14-2-11v-6l-12 5-21 6-26 5-18 2h-36l-21-3-12-4-13-7-8-9-4-9v-17l3-12 4-9-2-4-16-8-10-10-5-10-2-7-1-14 2-17-17-3-13-5-9-7-5-5-5-6-4-8-3-16 3-15 6-10 9-7 12-5 9-2h21l20 4 9 2-15-7-18-7-19-5-7-1h-14l-12 3-9 5-5 4-6 9-3 9-1 5v17l3 15 5 13 8 14 9 10 9 6 9 3h8l1 3-4 11-3 15-1 16 2 14 4 12 5 10 8 11 11 12 15 12 19 12 23 12 49 20 32 14 19 9 19 10 23 13 22 14 18 13 16 13 8 7 12 11 11 11 9 11 13 17 12 20 9 19 6 18 4 16 3 23v27l-4 28-7 27-13 33-8 15-1-2 8-24 5-24 2-17v-45l-3-20-4-15-6-18-8-16-9-14-12-12-11-5h-9l11 15 12 22 7 19 6 25 3 28v25l-4 35-6 27-9 27-10 23-11 21-15 23-9 12-9 10-9 11-7 7-3 1 2-6 9-21 10-28 7-23 5-23 4-27 2-22v-13l-2-19-4-20-6-18-6-14-10-17-10-13-9-10-15-15-14-11-24-16-21-12-23-12-28-13-30-13-40-17-25-11-29-14-19-10-19-12-14-10-13-11-8-7-7-8-10-13-9-15-6-15-5-21-1-11v-40l-6 17-2 17 1 17 4 17 6 17 8 16 9 15 8 11 9 11 12 14 13 13 8 7 13 11 20 15 26 17 16 9 22 12 28 13 4 4-18-4-34-8-29-8-27-9-22-9-28-13-18-10-16-10-19-14-13-11-13-13-11-12-11-16-9-17-5-15-3-11-6 3h-2l-2 5-4 16-3 24-2 14-3 1-3-10-6-33-4-31-2-23v-34l3-31 5-27 7-24 8-20 11-22 10-16 11-14 11-12 7-8 13-12 13-10 16-11 21-12 24-11 36-12 26-6 17-3-3-6-8-5-8-4v-1zm140 139 4 4 28 12 20 9 16 8 17 9 18 12 4 2-2-4-8-7-13-10-7-4h-2v-2l7-1 4-3v-2l-5-1-1-7-4-2-3 7-4 3-4 1-8-4-4-7 12-3 13-2-1-2-19-4-14-1zm204 88-11 3-14 7 1 3 20 9 16 9 10 7 3-1v-17l-3-11-6-5-7-3z" fill="#0096ff"/>
<path transform="translate(1151,844)" d="m0 0 2 2 10 33 6 25 4 27 1 16v12l-2 22-5 23-7 20-11 21-14 19-21 21-13 10-11 7-14 8-20 9-27 9-25 6-25 4-10 1h-67l-23-3-18-4v-2l26-1 33-4 27-5 24-6 36-12 29-13 24-14 14-10 16-13 17-17 10-13 11-17 12-25 7-21 4-18 2-11 1-12v-45l-3-23z" fill="#0096ff"/>
<path transform="translate(1035,722)" d="m0 0 10 2 22 8 23 10 23 12 11 7 17 12 11 9 12 11 12 12 9 11 12 17 10 17 11 26 3 9 5 23 2 12 1 25-2 22-3 16-6 20-8 18-7 13-10 15-12 14-19 19-13 10-15 10-22 12-2-1 9-7 11-9 17-17 10-13 10-16 8-16 8-22 5-22 3-21v-50l-4-26-8-26-9-21-11-20-11-16-11-14-12-13-14-14-11-9-13-10-20-12-21-11-11-5z" fill="#0096ff"/>
<path transform="translate(750 1e3)" d="m0 0 5 5 7 9 6 7 14 11 15 9 17 8 24 8 24 5 34 4h39l43-5 31-5 24-6 22-8 24-12 10-7h3l-6 8-6 7h-2l-2 4-14 13-16 12-18 11-19 9-24 8-23 5-23 3h-38l-22-3-23-5-27-9-23-11-15-10-10-8-7-6-7-8-8-10-7-14-4-13 1-5z" fill="#0096ff"/>
<path transform="translate(1033,721)" d="m0 0 2 1z" fill="#0096ff"/>

</svg>
